<?xml version="1.0" standalone="no"?>
<!DOCTYPE svg PUBLIC "-//W3C//DTD SVG 20010904//EN"
 "http://www.w3.org/TR/2001/REC-SVG-20010904/DTD/svg10.dtd">
<svg version="1.0" xmlns="http://www.w3.org/2000/svg"
 width="512.000000pt" height="512.000000pt" viewBox="0 0 512.000000 512.000000"
 preserveAspectRatio="xMidYMid meet">

<g transform="translate(0.000000,512.000000) scale(0.100000,-0.100000)"
fill="#000000" stroke="none">
<path d="M3575 4943 c-303 -24 -508 -63 -726 -139 -557 -193 -988 -659 -1143
-1234 -82 -304 -93 -661 -31 -1026 21 -127 73 -349 92 -402 7 -17 21 -2 98
105 109 153 312 407 448 563 134 154 552 570 705 703 346 302 846 667 912 667
69 0 107 -93 58 -139 -13 -11 -94 -69 -180 -129 -650 -447 -1246 -1020 -1720
-1652 -133 -178 -378 -534 -444 -646 -96 -163 -219 -429 -269 -581 -26 -83
-93 -118 -143 -75 -12 9 -45 72 -75 139 -156 350 -446 783 -592 881 -77 52
-108 45 -250 -62 -140 -105 -164 -145 -135 -221 5 -14 66 -84 134 -155 324
-337 595 -750 770 -1170 53 -127 72 -154 131 -181 51 -23 89 -23 141 0 53 24
81 61 99 130 101 374 255 693 546 1127 132 199 257 367 282 381 12 7 58 12
102 13 205 1 490 40 700 95 525 137 836 391 1020 829 61 145 120 331 245 770
60 210 127 431 148 492 104 289 229 510 393 694 32 37 59 72 59 78 0 33 -504
116 -855 142 -128 9 -423 11 -520 3z"/>
</g>
</svg>
